<?xml version="1.0" encoding="utf-8"?>
<!-- Generator: Adobe Illustrator 24.1.3, SVG Export Plug-In . SVG Version: 6.00 Build 0)  -->
<svg version="1.1" id="Layer_1" xmlns="http://www.w3.org/2000/svg" xmlns:xlink="http://www.w3.org/1999/xlink" x="0px" y="0px"
	 viewBox="0 0 834.28 624.02" style="enable-background:new 0 0 834.28 624.02;" xml:space="preserve">
<path d="M421.62,504.42c1.24-1.54,2.18-3.31,3.75-4.58c91.51-73.76,183.08-147.46,274.6-221.2c12.48-10.06,27.14-13.92,44.25-10.09
	c29.3,6.56,40.54,35.26,21.51,54.36c-1.94,1.94-4.17,3.71-6.36,5.47c-101.91,81.9-203.82,163.79-305.74,245.67
	c-21.79,17.5-46.14,17.45-68.05-0.14c-102.07-82-204.1-164.02-306.22-245.97c-13.28-10.66-18.01-23.07-12.26-37.4
	c9.4-23.4,45.84-31.1,69-14.84c2.03,1.42,3.89,3,5.8,4.53c90.92,73.05,181.85,146.1,272.72,219.18c1.74,1.4,2.9,3.25,4.32,4.9
	C419.83,504.35,420.72,504.38,421.62,504.42z"/>
<path d="M421.62,270.81c1.24-1.54,2.18-3.31,3.75-4.58c91.51-73.76,183.08-147.46,274.6-221.2c12.48-10.06,27.14-13.92,44.25-10.09
	c29.3,6.56,40.54,35.26,21.51,54.36c-1.94,1.94-4.17,3.71-6.36,5.47c-101.91,81.9-203.82,163.79-305.74,245.67
	c-21.79,17.5-46.14,17.45-68.05-0.14c-102.07-82-204.1-164.02-306.22-245.97c-13.28-10.66-18.01-23.07-12.26-37.4
	c9.4-23.4,45.84-31.1,69-14.84c2.03,1.42,3.89,3,5.8,4.53c90.92,73.05,181.85,146.1,272.72,219.18c1.74,1.4,2.9,3.25,4.32,4.9
	C419.83,270.74,420.72,270.77,421.62,270.81z"/>
</svg>
